<?xml version="1.0" encoding="UTF-8" standalone="no"?>
<!-- Created with Inkscape (http://www.inkscape.org/) -->

<svg
   width="512"
   height="512"
   viewBox="0 0 135.46666 135.46667"
   version="1.1"
   id="svg1"
   xml:space="preserve"
   sodipodi:docname="maskable.svg"
   inkscape:version="1.3.2 (091e20e, 2023-11-25, custom)"
   xmlns:inkscape="http://www.inkscape.org/namespaces/inkscape"
   xmlns:sodipodi="http://sodipodi.sourceforge.net/DTD/sodipodi-0.dtd"
   xmlns="http://www.w3.org/2000/svg"
   xmlns:svg="http://www.w3.org/2000/svg"><sodipodi:namedview
     id="namedview1"
     pagecolor="#ffffff"
     bordercolor="#000000"
     borderopacity="0.25"
     inkscape:showpageshadow="2"
     inkscape:pageopacity="0.0"
     inkscape:pagecheckerboard="0"
     inkscape:deskcolor="#d1d1d1"
     inkscape:zoom="1.1131408"
     inkscape:cx="250.64216"
     inkscape:cy="274.44867"
     inkscape:window-width="1920"
     inkscape:window-height="1017"
     inkscape:window-x="-8"
     inkscape:window-y="32"
     inkscape:window-maximized="1"
     inkscape:current-layer="layer1" /><defs
     id="defs1" /><g
     id="layer1"><rect
       style="display:inline;fill:#000000;fill-opacity:1;stroke:#ffffff;stroke-width:0.0264531;stroke-linecap:round;stroke-linejoin:round;stroke-miterlimit:4.7;stroke-dasharray:none;paint-order:stroke fill markers"
       id="rect6"
       width="135.44022"
       height="135.44022"
       x="0.013226567"
       y="0.013226567" /><g
       id="g1"
       transform="matrix(1.6587966,0,0,1.6587966,-44.62249,-44.622491)"><path
         fill-rule="evenodd"
         clip-rule="evenodd"
         d="m 67.733332,77.65521 c 5.479785,0 9.921875,-4.44209 9.921875,-9.921875 0,-5.479785 -4.44209,-9.921875 -9.921875,-9.921875 -5.479785,0 -9.921875,4.44209 -9.921875,9.921875 0,5.479785 4.44209,9.921875 9.921875,9.921875 z m 0,-4.960938 c 2.73976,0 4.960937,-2.221177 4.960937,-4.960937 0,-2.73976 -2.221177,-4.960937 -4.960937,-4.960937 -2.73976,0 -4.960937,2.221177 -4.960937,4.960937 0,2.73976 2.221177,4.960937 4.960937,4.960937 z"
         fill="#fafafa"
         id="path1"
         style="stroke-width:0.264583" /><path
         d="m 57.811457,57.81146 c -5.479785,0 -9.921875,4.44209 -9.921875,9.921875 0,5.479785 4.44209,9.921875 9.921875,9.921875 v -4.960938 c -2.73976,0 -4.960937,-2.221177 -4.960937,-4.960937 0,-2.73976 2.221177,-4.960937 4.960937,-4.960937 z"
         fill="#d4d4d8"
         id="path2"
         style="stroke-width:0.264583" /><path
         d="m 77.655207,57.81146 c 0,-5.479785 -4.44209,-9.921875 -9.921875,-9.921875 -5.479785,0 -9.921875,4.44209 -9.921875,9.921875 h 4.960938 c 0,-2.73976 2.221177,-4.960937 4.960937,-4.960937 2.73976,0 4.960937,2.221177 4.960937,4.960937 z"
         fill="#d4d4d8"
         id="path3"
         style="stroke-width:0.264583" /><path
         d="m 77.655207,77.65521 c 5.479785,0 9.921875,-4.44209 9.921875,-9.921875 0,-5.479785 -4.44209,-9.921875 -9.921875,-9.921875 v 4.960938 c 2.73976,0 4.960937,2.221177 4.960937,4.960937 0,2.73976 -2.221177,4.960937 -4.960937,4.960937 z"
         fill="#d4d4d8"
         id="path4"
         style="stroke-width:0.264583" /><path
         d="m 57.811457,77.65521 c 0,5.479785 4.44209,9.921875 9.921875,9.921875 5.479785,0 9.921875,-4.44209 9.921875,-9.921875 h -4.960938 c 0,2.73976 -2.221177,4.960937 -4.960937,4.960937 -2.73976,0 -4.960937,-2.221177 -4.960937,-4.960937 z"
         fill="#d4d4d8"
         id="path5"
         style="stroke-width:0.264583" /><path
         d="m 52.85052,57.81146 c 0,-2.73976 2.221177,-4.960937 4.960937,-4.960937 v -4.960938 c -5.479785,0 -9.921875,4.44209 -9.921875,9.921875 z"
         fill="#a1a1aa"
         id="path6-2"
         style="stroke-width:0.264583" /><path
         d="m 77.655207,52.850523 c 2.73976,0 4.960937,2.221177 4.960937,4.960937 h 4.960938 c 0,-5.479785 -4.44209,-9.921875 -9.921875,-9.921875 z"
         fill="#a1a1aa"
         id="path7"
         style="stroke-width:0.264583" /><path
         d="m 82.616144,77.65521 c 0,2.73976 -2.221177,4.960937 -4.960937,4.960937 v 4.960938 c 5.479785,0 9.921875,-4.44209 9.921875,-9.921875 z"
         fill="#a1a1aa"
         id="path8"
         style="stroke-width:0.264583" /><path
         d="m 57.811457,82.616147 c -2.73976,0 -4.960937,-2.221177 -4.960937,-4.960937 h -4.960938 c 0,5.479785 4.44209,9.921875 9.921875,9.921875 z"
         fill="#a1a1aa"
         id="path9"
         style="stroke-width:0.264583" /><path
         d="m 92.538019,77.65521 c 0,2.73976 -2.221177,4.960937 -4.960937,4.960937 v 4.960938 c 5.479785,0 9.921875,-4.44209 9.921875,-9.921875 z"
         fill="#18181b"
         id="path10"
         style="stroke-width:0.264583" /><path
         d="m 82.616144,87.577085 c 0,2.73976 -2.221177,4.960937 -4.960937,4.960937 v 4.960938 c 5.479785,0 9.921875,-4.44209 9.921875,-9.921875 z"
         fill="#18181b"
         id="path11"
         style="stroke-width:0.264583" /><path
         d="m 47.889582,82.616147 c -2.73976,0 -4.960937,-2.221177 -4.960937,-4.960937 h -4.960937 c 0,5.479785 4.442089,9.921875 9.921874,9.921875 z"
         fill="#18181b"
         id="path12"
         style="stroke-width:0.264583" /><path
         d="m 57.811457,92.538022 c -2.73976,0 -4.960937,-2.221177 -4.960937,-4.960937 h -4.960938 c 0,5.479785 4.44209,9.921875 9.921875,9.921875 z"
         fill="#18181b"
         id="path13"
         style="stroke-width:0.264583" /><path
         d="m 57.811457,102.4599 c -2.73976,0 -4.960937,-2.22118 -4.960937,-4.96094 h -4.960938 c 0,5.47978 4.44209,9.92187 9.921875,9.92187 z"
         fill="#18181b"
         id="path14"
         style="stroke-width:0.264583" /><path
         d="m 47.889582,92.538022 c -2.73976,0 -4.960937,-2.221177 -4.960937,-4.960937 h -4.960937 c 0,5.479785 4.442089,9.921875 9.921874,9.921875 z"
         fill="#18181b"
         id="path15"
         style="stroke-width:0.264583" /><path
         d="m 37.967708,82.616147 c -2.739761,0 -4.960938,-2.221177 -4.960938,-4.960937 h -4.960937 c 0,5.479785 4.442089,9.921875 9.921875,9.921875 z"
         fill="#18181b"
         id="path16"
         style="stroke-width:0.264583" /><path
         d="m 52.85052,47.889585 c 0,-2.73976 2.221177,-4.960937 4.960937,-4.960937 V 37.96771 c -5.479785,0 -9.921875,4.44209 -9.921875,9.921875 z"
         fill="#18181b"
         id="path17"
         style="stroke-width:0.264583" /><path
         d="m 42.928645,57.81146 c 0,-2.73976 2.221177,-4.960937 4.960937,-4.960937 v -4.960938 c -5.479785,0 -9.921874,4.44209 -9.921874,9.921875 z"
         fill="#18181b"
         id="path18"
         style="stroke-width:0.264583" /><path
         d="m 33.00677,57.81146 c 0,-2.73976 2.221177,-4.960937 4.960938,-4.960937 v -4.960938 c -5.479786,0 -9.921875,4.44209 -9.921875,9.921875 z"
         fill="#18181b"
         id="path19"
         style="stroke-width:0.264583" /><path
         d="m 42.928645,47.889585 c 0,-2.73976 2.221177,-4.960937 4.960937,-4.960937 V 37.96771 c -5.479785,0 -9.921874,4.44209 -9.921874,9.921875 z"
         fill="#18181b"
         id="path20"
         style="stroke-width:0.264583" /><path
         d="m 52.85052,37.96771 c 0,-2.739839 2.221177,-4.960937 4.960937,-4.960937 v -4.960938 c -5.479785,0 -9.921875,4.442169 -9.921875,9.921875 z"
         fill="#18181b"
         id="path21"
         style="stroke-width:0.264583" /><path
         d="m 87.577082,52.850523 c 2.73976,0 4.960937,2.221177 4.960937,4.960937 h 4.960938 c 0,-5.479785 -4.44209,-9.921875 -9.921875,-9.921875 z"
         fill="#18181b"
         id="path22"
         style="stroke-width:0.264583" /><path
         d="m 77.655207,42.928648 c 2.73976,0 4.960937,2.221177 4.960937,4.960937 h 4.960938 c 0,-5.479785 -4.44209,-9.921875 -9.921875,-9.921875 z"
         fill="#18181b"
         id="path23"
         style="stroke-width:0.264583" /><path
         d="m 77.655207,33.006773 c 2.73976,0 4.960937,2.221098 4.960937,4.960937 h 4.960938 c 0,-5.479706 -4.44209,-9.921875 -9.921875,-9.921875 z"
         fill="#18181b"
         id="path24"
         style="stroke-width:0.264583" /><path
         d="m 87.577082,42.928648 c 2.73976,0 4.960937,2.221177 4.960937,4.960937 h 4.960938 c 0,-5.479785 -4.44209,-9.921875 -9.921875,-9.921875 z"
         fill="#18181b"
         id="path25"
         style="stroke-width:0.264583" /><path
         d="m 97.498957,52.850523 c 2.739763,0 4.960933,2.221177 4.960933,4.960937 h 4.96094 c 0,-5.479785 -4.44209,-9.921875 -9.921873,-9.921875 z"
         fill="#18181b"
         id="path26"
         style="stroke-width:0.264583" /><path
         d="m 92.538019,87.577085 c 0,2.73976 -2.221177,4.960937 -4.960937,4.960937 v 4.960938 c 5.479785,0 9.921875,-4.44209 9.921875,-9.921875 z"
         fill="#18181b"
         id="path27"
         style="stroke-width:0.264583" /><path
         d="m 102.45989,77.65521 c 0,2.73976 -2.22117,4.960937 -4.960933,4.960937 v 4.960938 c 5.479783,0 9.921873,-4.44209 9.921873,-9.921875 z"
         fill="#18181b"
         id="path28"
         style="stroke-width:0.264583" /><path
         d="m 82.616144,97.49896 c 0,2.73976 -2.221177,4.96094 -4.960937,4.96094 v 4.96093 c 5.479785,0 9.921875,-4.44209 9.921875,-9.92187 z"
         fill="#18181b"
         id="path29"
         style="stroke-width:0.264583" /><path
         d="m 47.889582,57.81146 c -5.479785,0 -9.921874,4.44209 -9.921874,9.921875 0,5.479785 4.442089,9.921875 9.921874,9.921875 v -4.960938 c -2.73976,0 -4.960937,-2.221177 -4.960937,-4.960937 0,-2.73976 2.221177,-4.960937 4.960937,-4.960937 z"
         fill="#18181b"
         id="path30"
         style="stroke-width:0.264583" /><path
         d="m 37.967708,57.81146 c -5.479786,0 -9.921875,4.44209 -9.921875,9.921875 0,5.479785 4.442089,9.921875 9.921875,9.921875 v -4.960938 c -2.739761,0 -4.960938,-2.221177 -4.960938,-4.960937 0,-2.73976 2.221177,-4.960937 4.960938,-4.960937 z"
         fill="#18181b"
         id="path31"
         style="stroke-width:0.264583" /><path
         d="m 77.655207,47.889585 c 0,-5.479785 -4.44209,-9.921875 -9.921875,-9.921875 -5.479785,0 -9.921875,4.44209 -9.921875,9.921875 h 4.960938 c 0,-2.73976 2.221177,-4.960937 4.960937,-4.960937 2.73976,0 4.960937,2.221177 4.960937,4.960937 z"
         fill="#18181b"
         id="path32"
         style="stroke-width:0.264583" /><path
         d="m 77.655207,37.96771 c 0,-5.479706 -4.44209,-9.921875 -9.921875,-9.921875 -5.479785,0 -9.921875,4.442169 -9.921875,9.921875 h 4.960938 c 0,-2.739839 2.221177,-4.960937 4.960937,-4.960937 2.73976,0 4.960937,2.221098 4.960937,4.960937 z"
         fill="#18181b"
         id="path33"
         style="stroke-width:0.264583" /><path
         d="m 87.577082,77.65521 c 5.479785,0 9.921875,-4.44209 9.921875,-9.921875 0,-5.479785 -4.44209,-9.921875 -9.921875,-9.921875 v 4.960938 c 2.73976,0 4.960937,2.221177 4.960937,4.960937 0,2.73976 -2.221177,4.960937 -4.960937,4.960937 z"
         fill="#18181b"
         id="path34"
         style="stroke-width:0.264583" /><path
         d="m 97.498957,77.65521 c 5.479783,0 9.921873,-4.44209 9.921873,-9.921875 0,-5.479785 -4.44209,-9.921875 -9.921873,-9.921875 v 4.960938 c 2.739763,0 4.960933,2.221177 4.960933,4.960937 0,2.73976 -2.22117,4.960937 -4.960933,4.960937 z"
         fill="#18181b"
         id="path35"
         style="stroke-width:0.264583" /><path
         d="m 57.811457,87.577085 c 0,5.479785 4.44209,9.921875 9.921875,9.921875 5.479785,0 9.921875,-4.44209 9.921875,-9.921875 h -4.960938 c 0,2.73976 -2.221177,4.960937 -4.960937,4.960937 -2.73976,0 -4.960937,-2.221177 -4.960937,-4.960937 z"
         fill="#18181b"
         id="path36"
         style="stroke-width:0.264583" /><path
         d="m 57.811457,97.49896 c 0,5.47978 4.44209,9.92187 9.921875,9.92187 5.479785,0 9.921875,-4.44209 9.921875,-9.92187 h -4.960938 c 0,2.73976 -2.221177,4.96094 -4.960937,4.96094 -2.73976,0 -4.960937,-2.22118 -4.960937,-4.96094 z"
         fill="#18181b"
         id="path37"
         style="stroke-width:0.264583" /></g><circle
       style="display:none;fill:none;fill-opacity:1;stroke:#ffffff;stroke-width:0.0211625;stroke-linecap:round;stroke-linejoin:round;stroke-miterlimit:4.7;stroke-dasharray:none;paint-order:stroke fill markers"
       id="path6"
       cx="67.73333"
       cy="67.73333"
       r="54.176086" /></g></svg>
